REM DIRINDEX 1\2\3,1\2\4,1\2\5,1\2\6
REM DIRNAME cjc157,folder01,folder02,folder03,folder04,folder05
TITLE ""
FILE "154 154.mp3" MP3
  TRACK 01 AUDIO
    TITLE "0:"
    INDEX 01 00:00:00
  TRACK 02 AUDIO
    TITLE "3:cjc157_5658"
    INDEX 01 00:00:09
  TRACK 03 AUDIO
    TITLE "0:"
    INDEX 01 00:02:10
  TRACK 04 AUDIO
    TITLE "4:cjc157_5659"
    INDEX 01 00:02:51
  TRACK 05 AUDIO
    TITLE "0:"
    INDEX 01 00:04:23
  TRACK 06 AUDIO
    TITLE "5:cjc157_5660"
    INDEX 01 00:04:70
  TRACK 07 AUDIO
    TITLE "0:"
    INDEX 01 00:08:72
  TRACK 08 AUDIO
    TITLE "3:cjc157_5661"
    INDEX 01 00:09:45
  TRACK 09 AUDIO
    TITLE "0:"
    INDEX 01 00:10:72
  TRACK 10 AUDIO
    TITLE "4:cjc157_5662"
    INDEX 01 00:11:40
  TRACK 11 AUDIO
    TITLE "0:"
    INDEX 01 00:13:10
  TRACK 12 AUDIO
    TITLE "5:cjc157_5663"
    INDEX 01 00:13:57
  TRACK 13 AUDIO
    TITLE "0:"
    INDEX 01 00:17:29
  TRACK 14 AUDIO
    TITLE "3:cjc157_5664"
    INDEX 01 00:17:74
  TRACK 15 AUDIO
    TITLE "0:"
    INDEX 01 00:19:44
  TRACK 16 AUDIO
    TITLE "4:cjc157_5665"
    INDEX 01 00:20:16
  TRACK 17 AUDIO
    TITLE "0:"
    INDEX 01 00:21:39
  TRACK 18 AUDIO
    TITLE "5:cjc157_5666"
    INDEX 01 00:22:15
  TRACK 19 AUDIO
    TITLE "0:"
    INDEX 01 00:25:09
  TRACK 20 AUDIO
    TITLE "3:cjc157_5667"
    INDEX 01 00:25:54
  TRACK 21 AUDIO
    TITLE "0:"
    INDEX 01 00:27:22
  TRACK 22 AUDIO
    TITLE "4:cjc157_5668"
    INDEX 01 00:27:65
  TRACK 23 AUDIO
    TITLE "0:"
    INDEX 01 00:29:09
  TRACK 24 AUDIO
    TITLE "5:cjc157_5669"
    INDEX 01 00:29:54
  TRACK 25 AUDIO
    TITLE "0:"
    INDEX 01 00:32:05
  TRACK 26 AUDIO
    TITLE "5:cjc157_5670"
    INDEX 01 00:32:54
  TRACK 27 AUDIO
    TITLE "0:"
    INDEX 01 00:36:11
  TRACK 28 AUDIO
    TITLE "3:cjc157_5671"
    INDEX 01 00:36:60
  TRACK 29 AUDIO
    TITLE "0:"
    INDEX 01 00:38:35
  TRACK 30 AUDIO
    TITLE "4:cjc157_5672"
    INDEX 01 00:39:05
  TRACK 31 AUDIO
    TITLE "0:"
    INDEX 01 00:40:44
  TRACK 32 AUDIO
    TITLE "5:cjc157_5673"
    INDEX 01 00:41:16
  TRACK 33 AUDIO
    TITLE "0:"
    INDEX 01 00:44:71
  TRACK 34 AUDIO
    TITLE "3:cjc157_5674"
    INDEX 01 00:45:47
  TRACK 35 AUDIO
    TITLE "0:"
    INDEX 01 00:46:68
  TRACK 36 AUDIO
    TITLE "4:cjc157_5675"
    INDEX 01 00:47:38
  TRACK 37 AUDIO
    TITLE "0:"
    INDEX 01 00:49:25
  TRACK 38 AUDIO
    TITLE "5:cjc157_5676"
    INDEX 01 00:49:70
  TRACK 39 AUDIO
    TITLE "0:"
    INDEX 01 00:54:74
  TRACK 40 AUDIO
    TITLE "3:cjc157_5677"
    INDEX 01 00:55:44
  TRACK 41 AUDIO
    TITLE "0:"
    INDEX 01 00:56:57
  TRACK 42 AUDIO
    TITLE "4:cjc157_5678"
    INDEX 01 00:57:25
  TRACK 43 AUDIO
    TITLE "0:"
    INDEX 01 00:58:54
  TRACK 44 AUDIO
    TITLE "5:cjc157_5679"
    INDEX 01 00:59:22
  TRACK 45 AUDIO
    TITLE "0:"
    INDEX 01 01:02:50
  TRACK 46 AUDIO
    TITLE "5:cjc157_5680"
    INDEX 01 01:03:22
  TRACK 47 AUDIO
    TITLE "0:"
    INDEX 01 01:07:27
  TRACK 48 AUDIO
    TITLE "3:cjc157_5681"
    INDEX 01 01:07:72
  TRACK 49 AUDIO
    TITLE "0:"
    INDEX 01 01:09:30
  TRACK 50 AUDIO
    TITLE "4:cjc157_5682"
    INDEX 01 01:10:02
  TRACK 51 AUDIO
    TITLE "0:"
    INDEX 01 01:11:23
  TRACK 52 AUDIO
    TITLE "5:cjc157_5683"
    INDEX 01 01:11:70
  TRACK 53 AUDIO
    TITLE "0:"
    INDEX 01 01:14:68
  TRACK 54 AUDIO
    TITLE "3:cjc157_5684"
    INDEX 01 01:15:39
  TRACK 55 AUDIO
    TITLE "0:"
    INDEX 01 01:17:00
  TRACK 56 AUDIO
    TITLE "4:cjc157_5685"
    INDEX 01 01:17:45
  TRACK 57 AUDIO
    TITLE "0:"
    INDEX 01 01:18:49
  TRACK 58 AUDIO
    TITLE "5:cjc157_5686"
    INDEX 01 01:19:30
  TRACK 59 AUDIO
    TITLE "0:"
    INDEX 01 01:22:07
  TRACK 60 AUDIO
    TITLE "3:cjc157_5687"
    INDEX 01 01:22:52
  TRACK 61 AUDIO
    TITLE "0:"
    INDEX 01 01:23:73
  TRACK 62 AUDIO
    TITLE "4:cjc157_5688"
    INDEX 01 01:24:49
  TRACK 63 AUDIO
    TITLE "0:"
    INDEX 01 01:25:74
  TRACK 64 AUDIO
    TITLE "5:cjc157_5689"
    INDEX 01 01:26:52
  TRACK 65 AUDIO
    TITLE "0:"
    INDEX 01 01:30:52
  TRACK 66 AUDIO
    TITLE "5:cjc157_5690"
    INDEX 01 01:31:28
  TRACK 67 AUDIO
    TITLE "0:"
    INDEX 01 01:35:10
